<?xml version="1.0" encoding="UTF-8"?>
<svg version="1.1" xmlns="http://www.w3.org/2000/svg" width="500" height="500">
<path d="M0 0 C165 0 330 0 500 0 C500 165 500 330 500 500 C335 500 170 500 0 500 C0 335 0 170 0 0 Z " fill="#FEFEFE" transform="translate(0,0)"/>
<path d="M0 0 C1.10031303 0.00303635 1.10031303 0.00303635 2.22285461 0.00613403 C2.99192642 0.00438171 3.76099823 0.00262939 4.55337524 0.00082397 C7.10793787 -0.00359483 9.66243185 -0.00065646 12.21699524 0.00271606 C13.98437005 0.00204303 15.75174477 0.00107302 17.51911926 -0.00018311 C21.22815327 -0.00166012 24.93716324 0.00049458 28.64619446 0.00515747 C33.41147017 0.01085476 38.17668956 0.00757577 42.9419632 0.00158501 C46.59295581 -0.00202052 50.24393497 -0.00088206 53.89492798 0.0017128 C55.65248623 0.00238209 57.41004569 0.00155357 59.16760254 -0.00076675 C61.61964678 -0.00329314 64.07159855 0.0005471 66.52363586 0.00613403 C67.25717789 0.0041098 67.99071991 0.00208557 68.74649048 0 C73.7589826 0.02126592 73.7589826 0.02126592 74.87324524 1.13552856 C75.59915487 8.86519423 75.59077303 16.69428347 75.7325592 24.45615101 C75.79931723 28.04817194 75.89424234 31.63423507 76.05976868 35.22317505 C77.18777257 60.30563874 77.18777257 60.30563874 71.75971985 66.53787231 C68.68885454 69.28101204 65.35682998 71.32001229 61.69569397 73.18310547 C59.30177831 74.43418075 57.28152654 76.02147975 55.18965149 77.72146606 C53.94028528 78.65375349 52.68910001 79.58361025 51.43574524 80.51052856 C50.80732727 80.97845825 50.1789093 81.44638794 49.53144836 81.92849731 C48.28199462 82.85885979 47.02900074 83.78449064 45.77217102 84.7048645 C44.42212387 85.72199954 43.09991248 86.7765448 41.79853821 87.85525513 C36.58972076 92.08719064 36.58972076 92.08719064 33.26777649 92.31130981 C30.01713297 90.7151537 27.32575503 88.62700569 24.56074524 86.32302856 C23.32523069 85.32121958 22.0881893 84.32129134 20.84980774 83.32302856 C20.20430969 82.80095825 19.55881165 82.27888794 18.89375305 81.74099731 C14.83172109 78.51336051 10.64378351 75.45036455 6.46772766 72.37258911 C5.83971252 71.90635132 5.21169739 71.44011353 4.56465149 70.95974731 C4.02010315 70.55844604 3.47555481 70.15714478 2.914505 69.74368286 C2.24088928 69.21299194 1.56727356 68.68230103 0.87324524 68.13552856 C0.2913443 67.7976683 -0.29055664 67.45980804 -0.89009094 67.11170959 C-4.23078184 64.87997746 -5.88661885 63.25680105 -6.74490356 59.24919128 C-6.95494327 55.56084471 -6.93921866 51.93421473 -6.84550476 48.24099731 C-6.83497442 46.88435282 -6.82741112 45.52768235 -6.82267761 44.17100525 C-6.80170854 40.61461406 -6.73786006 37.06021615 -6.66569519 33.50454712 C-6.61370788 30.59211677 -6.5918402 27.67982289 -6.57157135 24.76702404 C-6.52937485 18.7621544 -6.46385922 12.75742092 -6.35136414 6.75344849 C-6.33247131 5.69010788 -6.31357849 4.62676727 -6.29411316 3.53120422 C-5.98807284 -0.84965357 -3.88603018 0.01648681 0 0 Z " fill="#F15E63" transform="translate(322.1267547607422,157.86447143554688)"/>
<path d="M0 0 C0.66 0 1.32 0 2 0 C2.30180176 0.71953857 2.60360352 1.43907715 2.91455078 2.18041992 C10.19516704 19.660595 10.19516704 19.660595 18.07421875 36.875 C19 39 19 39 19 41 C13.72 41 8.44 41 3 41 C2.34 43.3925 1.68 45.785 1 48.25 C-6.93004647 75.60678877 -20.17218191 100.82791697 -38 123 C-38.6499292 123.80872559 -38.6499292 123.80872559 -39.31298828 124.63378906 C-49.74219023 137.5048561 -61.11323406 148.88213087 -74.39794922 158.79931641 C-75.83166861 159.87384124 -77.24722305 160.97250432 -78.66015625 162.07421875 C-87.22061116 168.59710016 -96.59039244 173.81753145 -106 179 C-106.70350586 179.38752441 -107.40701172 179.77504883 -108.13183594 180.17431641 C-118.37124602 185.73533258 -128.84200668 189.6853895 -140 193 C-141.23234375 193.36867188 -142.4646875 193.73734375 -143.734375 194.1171875 C-156.55625687 197.72859091 -169.78770503 200.53831508 -183.06787109 201.68115234 C-192.88956375 202.5293603 -200.99584621 205.07057611 -210 209 C-210.95825684 209.41475586 -211.91651367 209.82951172 -212.90380859 210.25683594 C-217.09543322 212.07327181 -221.28618057 213.89035255 -225.4597168 215.74804688 C-226.40886963 216.16892578 -227.35802246 216.58980469 -228.3359375 217.0234375 C-229.18720215 217.40419434 -230.0384668 217.78495117 -230.91552734 218.17724609 C-233 219 -233 219 -235 219 C-235.02730408 217.43759968 -235.04653226 215.8750573 -235.0625 214.3125 C-235.07410156 213.44238281 -235.08570313 212.57226562 -235.09765625 211.67578125 C-235.00043483 209.01191443 -234.59364333 206.59426811 -234 204 C-234.91136719 203.8040625 -235.82273438 203.608125 -236.76171875 203.40625 C-254.96277395 199.28800731 -271.84513716 192.27386747 -288 183 C-288.65726074 182.6272998 -289.31452148 182.25459961 -289.99169922 181.87060547 C-298.81706298 176.84095619 -307.01672306 171.30434265 -315 165 C-315.84304688 164.36191406 -316.68609375 163.72382813 -317.5546875 163.06640625 C-359.33457935 130.49332947 -387.43692469 80.47162037 -394.68774414 28.1875 C-394.94392677 26.39281948 -395.25879706 24.60660923 -395.58984375 22.82421875 C-396.08777519 19.39560511 -396.09516888 16.08790165 -396.0625 12.625 C-396.05347656 11.37976563 -396.04445313 10.13453125 -396.03515625 8.8515625 C-396.02355469 7.91054688 -396.01195312 6.96953125 -396 6 C-395.67 6 -395.34 6 -395 6 C-394.93530518 6.55647217 -394.87061035 7.11294434 -394.80395508 7.6862793 C-391.45991202 35.76188888 -384.578613 62.05324588 -371 87 C-370.68595215 87.59184082 -370.3719043 88.18368164 -370.04833984 88.79345703 C-364.86795286 98.53451614 -358.7085144 107.27236916 -352 116 C-351.31679688 116.91007812 -350.63359375 117.82015625 -349.9296875 118.7578125 C-320.25450923 156.81186464 -278.27253982 179.3126875 -232 190 C-231.67 185.05 -231.34 180.1 -231 175 C-226.85188358 176.65924657 -225.02320562 177.58135333 -221.8125 180.3125 C-216.86223132 184.37772064 -211.74872841 188.17850349 -206.5625 191.9375 C-205.76884033 192.51733643 -204.97518066 193.09717285 -204.1574707 193.69458008 C-203.40554443 194.23751709 -202.65361816 194.7804541 -201.87890625 195.33984375 C-201.2041626 195.82831787 -200.52941895 196.31679199 -199.83422852 196.82006836 C-190.75723519 202.65916177 -176.43625388 198.2674585 -166.71069336 196.2578125 C-128.43102818 187.87643748 -95.18213833 168.89930984 -67 142 C-66.18660156 141.22785156 -65.37320312 140.45570313 -64.53515625 139.66015625 C-59.19308972 134.46419752 -54.50613396 128.93007229 -50 123 C-49.37609375 122.19304687 -48.7521875 121.38609375 -48.109375 120.5546875 C-37.9470508 107.04623216 -29.71016023 92.48844354 -23 77 C-22.71785645 76.3596582 -22.43571289 75.71931641 -22.14501953 75.05957031 C-18.42834072 66.55742114 -15.81832838 58.10373193 -13.76171875 49.0703125 C-13 46 -13 46 -12 45 C-11.67 42.69 -11.34 40.38 -11 38 C-15.62 37.34 -20.24 36.68 -25 36 C-24.09313798 32.37255192 -23.62261879 31.18164538 -21.4453125 28.41796875 C-20.65411011 27.40077759 -20.65411011 27.40077759 -19.84692383 26.36303711 C-19.27868896 25.64510986 -18.7104541 24.92718262 -18.125 24.1875 C-16.94249454 22.67305741 -15.76153532 21.15740635 -14.58203125 19.640625 C-13.98471191 18.87298828 -13.38739258 18.10535156 -12.77197266 17.31445312 C-9.55332522 13.11043306 -6.47621644 8.80044682 -3.42822266 4.47143555 C-2.3328194 2.94582923 -1.17247877 1.46720021 0 0 Z " fill="#E6484E" transform="translate(449,277)"/>
<path d="M0 0 C-0.33 4.95 -0.66 9.9 -1 15 C1.206875 15.495 3.41375 15.99 5.6875 16.5 C29.14634346 22.1981661 51.45244669 32.92853432 71 47 C72.010625 47.71671875 73.02125 48.4334375 74.0625 49.171875 C89.47917163 60.40636444 103.10212628 73.10671089 115 88 C115.6703125 88.80308594 116.340625 89.60617188 117.03125 90.43359375 C122.66446462 97.24039475 127.36788821 104.49649549 132 112 C132.6084375 112.96679688 133.216875 113.93359375 133.84375 114.9296875 C139.10430335 123.56177731 143.11352992 132.68993454 147 142 C147.28262695 142.67047363 147.56525391 143.34094727 147.85644531 144.03173828 C155.91073161 163.38832114 162.25514575 186.89495657 161 208 C159.46833008 205.21880989 158.68031277 202.90682305 158.2890625 199.76171875 C158.18102295 198.94936768 158.0729834 198.1370166 157.96166992 197.30004883 C157.85056885 196.43790771 157.73946777 195.5757666 157.625 194.6875 C155.36928066 178.65500727 150.93147408 162.99283656 144.31640625 148.1875 C143 145 143 145 143 142 C142.34 142 141.68 142 141 142 C140.49210937 140.87722656 139.98421875 139.75445312 139.4609375 138.59765625 C135.81742743 130.6351539 132.18949707 123.08542574 127 116 C126.29488281 114.97003906 125.58976562 113.94007813 124.86328125 112.87890625 C113.61812469 96.53727416 100.49115822 82.3754963 85 70 C83.79537109 68.99453125 83.79537109 68.99453125 82.56640625 67.96875 C59.69655458 49.0419762 32.37313169 37.80412364 4 30 C1.66532817 29.33792888 -0.66731849 28.66906369 -3 28 C-2.9690625 29.7634375 -2.9690625 29.7634375 -2.9375 31.5625 C-2.93052739 35.47413467 -3.35749657 39.14497944 -4 43 C-7.61750075 42.38555154 -9.76119377 40.88928932 -12.6328125 38.6484375 C-13.52226562 37.96136719 -14.41171875 37.27429688 -15.328125 36.56640625 C-16.25109375 35.84324219 -17.1740625 35.12007812 -18.125 34.375 C-20.84400412 32.25978619 -23.56686871 30.15106491 -26.30566406 28.06152344 C-28.08443215 26.70053053 -29.8473839 25.31858206 -31.59277344 23.91503906 C-36.30295624 20.29812887 -39.61054383 18.1361072 -45.64111328 18.6640625 C-46.4195459 18.77492188 -47.19797852 18.88578125 -48 19 C-48.86737793 19.09023437 -49.73475586 19.18046875 -50.62841797 19.2734375 C-99.23164113 24.82325724 -147.43843451 49.69191134 -178.875 87.625 C-180.25937996 89.40942892 -181.63422075 91.2012945 -183 93 C-183.80695313 94.00289063 -184.61390625 95.00578125 -185.4453125 96.0390625 C-204.77855506 120.17594073 -218.68046696 150.53358351 -224 181 C-219.05 181.33 -214.1 181.66 -209 182 C-210.52193498 185.04386996 -211.91410059 187.39824942 -213.90625 190.08984375 C-214.76814941 191.25809692 -214.76814941 191.25809692 -215.64746094 192.44995117 C-216.25879883 193.27084229 -216.87013672 194.0917334 -217.5 194.9375 C-218.12422852 195.77837158 -218.74845703 196.61924316 -219.39160156 197.4855957 C-221.25708982 199.99339136 -223.12823199 202.4968897 -225 205 C-225.52916016 205.71220703 -226.05832031 206.42441406 -226.60351562 207.15820312 C-227.9785669 209.00678199 -229.36216257 210.84851043 -230.75 212.6875 C-231.52859375 213.72261719 -232.3071875 214.75773438 -233.109375 215.82421875 C-233.73328125 216.54222656 -234.3571875 217.26023437 -235 218 C-235.66 218 -236.32 218 -237 218 C-239.12415118 213.10968962 -241.24187618 208.21666561 -243.35375977 203.32104492 C-244.07271297 201.65687637 -244.79339959 199.99345555 -245.51586914 198.33081055 C-246.55554284 195.93734287 -247.58890113 193.541233 -248.62109375 191.14453125 C-248.94403915 190.4047554 -249.26698456 189.66497955 -249.59971619 188.90278625 C-249.89995193 188.20243759 -250.20018768 187.50208893 -250.50952148 186.78051758 C-250.77377426 186.1698494 -251.03802704 185.55918121 -251.31028748 184.93000793 C-252 183 -252 183 -253 178 C-248.05 178 -243.1 178 -238 178 C-237.505 175.958125 -237.01 173.91625 -236.5 171.8125 C-228.16865859 139.90135004 -211.32656912 110.3892667 -189.01953125 86.20703125 C-187.26095093 84.28517848 -185.59180225 82.32352511 -183.9375 80.3125 C-181.2463379 77.14816654 -178.26450397 74.47443046 -175.09765625 71.79296875 C-173.74616456 70.63778312 -172.41806518 69.45436049 -171.12109375 68.23828125 C-158.31503766 56.28429151 -143.51933302 46.9790743 -128 39 C-126.90147705 38.42040527 -126.90147705 38.42040527 -125.78076172 37.82910156 C-104.92845496 26.89664629 -80.51599472 18.947339 -56.875 17.671875 C-42.08583645 16.86009596 -30.34170601 12.29222356 -17 6 C-15.57816131 5.33585976 -14.15629075 4.67178774 -12.734375 4.0078125 C-10.61020047 3.01240336 -8.49338252 2.00082578 -6.390625 0.9609375 C-4 0 -4 0 0 0 Z " fill="#E6474D" transform="translate(286,46)"/>
<path d="M0 0 C8.35542657 5.88677781 12.28707514 15.13598287 16.75 24 C17.11495575 24.71982056 17.4799115 25.43964111 17.85592651 26.18127441 C20.13690074 30.68132516 22.39426954 35.19269834 24.63983154 39.71051025 C25.72068932 41.87870299 26.81046285 44.04217791 27.90283203 46.20458984 C29.59087101 49.5525855 31.24902192 52.91384382 32.88500977 56.28756714 C33.49411466 57.53529824 34.11139903 58.77907592 34.73754883 60.01834106 C39.20052046 68.88584066 41.67696135 77.20888806 39.20629883 87.11816406 C36.45561254 94.20358205 32.12205822 97.86903167 25.3984375 100.984375 C19.60857189 103.06804345 14.83858026 102.60583223 9.1875 100.3125 C4.08023344 97.79911663 -1.02490334 94.56876509 -4.7265625 90.19140625 C-6.16989491 88.72032436 -6.16989491 88.72032436 -8.1796875 89.01171875 C-10.7912579 90.17953419 -12.34796457 91.73418432 -14.375 93.75 C-20.04559584 98.92790472 -26.0089824 101.96848647 -33.75 102.5 C-40.06875558 102.15330722 -45.76489752 99.47793877 -50.1796875 94.96484375 C-55.55016813 88.09114247 -56.12143434 81.5528464 -55.25 72.9375 C-54.06912549 68.91902258 -52.31623908 65.29841488 -50.4375 61.5625 C-49.91849121 60.48830811 -49.39948242 59.41411621 -48.86474609 58.30737305 C-47.68808332 55.88680481 -46.50253512 53.47315784 -45.30126953 51.06494141 C-43.40457468 47.26027501 -41.54366414 43.43880459 -39.6856842 39.6151123 C-38.01108789 36.17502368 -36.32446328 32.74093993 -34.63418579 29.30853271 C-33.80042569 27.61442012 -32.96899102 25.91916091 -32.13998413 24.22271729 C-30.96065756 21.816254 -29.76746295 19.41716807 -28.5703125 17.01953125 C-28.22371078 16.30693649 -27.87710907 15.59434174 -27.52000427 14.8601532 C-21.63670536 3.19580348 -13.65620574 -4.4645288 0 0 Z M-19.3984375 14.52734375 C-20.15108972 15.97115534 -20.89252174 17.42084978 -21.625 18.875 C-22.03854736 19.6791333 -22.45209473 20.4832666 -22.87817383 21.31176758 C-24.34721746 24.18116332 -25.7986918 27.05909448 -27.25 29.9375 C-28.17160887 31.75139722 -29.09322049 33.56529305 -30.01490784 35.37915039 C-38.60271236 52.25538467 -38.60271236 52.25538467 -46.6875 69.375 C-47.20183594 70.50808594 -47.71617187 71.64117187 -48.24609375 72.80859375 C-49.84433963 77.78989705 -50.02075626 82.40165941 -47.625 87.125 C-45.43883065 91.0207689 -43.4362839 93.11075793 -39.25 94.9375 C-32.04144653 95.99725671 -26.25412341 95.07086496 -20.25 90.9375 C-15.16405857 87.27372011 -15.16405857 87.27372011 -12.25 81.9375 C-13.55107369 79.43818011 -13.55107369 79.43818011 -15.4375 76.8125 C-21.09146532 68.29205326 -25.76482297 59.43797744 -24.25 48.9375 C-22.54414517 44.68756858 -20.28831303 41.74789065 -16.6875 38.9375 C-10.76615475 37.21492684 -4.47172633 36.3722273 1.234375 39.14453125 C4.7123203 41.65144438 7.19916743 43.87120216 8.75 47.9375 C10.69698436 61.54589594 4.16200845 72.08649051 -3.25 82.9375 C1.90500283 88.68922342 7.4382564 94.01018182 15.30078125 95.3828125 C21.26558669 95.65435144 24.95697815 94.4589038 29.75 90.9375 C33.60394807 86.82662206 34.06363444 82.8012865 34.0168457 77.24902344 C33.50043659 72.77568268 31.44650478 68.95087213 29.5 64.9375 C29.03053955 63.94580811 28.5610791 62.95411621 28.07739258 61.93237305 C26.66343808 58.97085686 25.23093058 56.01957569 23.78985596 53.07122803 C22.64112976 50.71410417 21.50162828 48.35264054 20.36279297 45.99072266 C18.18340568 41.47631108 15.98456706 36.9717854 13.77331543 32.47290039 C12.88624851 30.6647203 12.00331706 28.85450526 11.12463379 27.04223633 C9.87196624 24.46492109 8.6006306 21.89765372 7.32421875 19.33203125 C6.95256088 18.55898148 6.58090302 17.7859317 6.19798279 16.98945618 C3.72431236 12.08148398 1.26097241 9.11549276 -3.25 5.9375 C-5.56791732 5.16820966 -5.56791732 5.16820966 -7.8125 5.3125 C-8.53566406 5.29960937 -9.25882813 5.28671875 -10.00390625 5.2734375 C-14.63352607 6.64219466 -17.12960957 10.48944819 -19.3984375 14.52734375 Z " fill="#E15C61" transform="translate(206.25,151.0625)"/>
<path d="M0 0 C1.10031303 0.00303635 1.10031303 0.00303635 2.22285461 0.00613403 C2.99192642 0.00438171 3.76099823 0.00262939 4.55337524 0.00082397 C7.10793787 -0.00359483 9.66243185 -0.00065646 12.21699524 0.00271606 C13.98437005 0.00204303 15.75174477 0.00107302 17.51911926 -0.00018311 C21.22815327 -0.00166012 24.93716324 0.00049458 28.64619446 0.00515747 C33.41147017 0.01085476 38.17668956 0.00757577 42.9419632 0.00158501 C46.59295581 -0.00202052 50.24393497 -0.00088206 53.89492798 0.0017128 C55.65248623 0.00238209 57.41004569 0.00155357 59.16760254 -0.00076675 C61.61964678 -0.00329314 64.07159855 0.0005471 66.52363586 0.00613403 C67.25717789 0.0041098 67.99071991 0.00208557 68.74649048 0 C73.7589826 0.02126592 73.7589826 0.02126592 74.87324524 1.13552856 C74.9671582 3.03796618 74.99068182 4.94391315 74.98677063 6.84866333 C74.98665733 8.68044884 74.98665733 8.68044884 74.98654175 10.54924011 C74.98143435 11.89180542 74.97621835 13.23437032 74.97090149 14.57693481 C74.96903723 15.94314014 74.96761337 17.30934614 74.96661377 18.67555237 C74.96278918 22.27754552 74.95295941 25.87949856 74.94190979 29.48147583 C74.9316944 33.15456601 74.92711588 36.82766266 74.92207336 40.50076294 C74.91133708 47.71236979 74.89426138 54.92394357 74.87324524 62.13552856 C73.88324524 62.63052856 73.88324524 62.63052856 72.87324524 63.13552856 C72.87324524 62.47552856 72.87324524 61.81552856 72.87324524 61.13552856 C72.0495343 60.76234497 72.0495343 60.76234497 71.20918274 60.38162231 C68.41535177 58.89126767 66.02309076 57.11068551 63.49824524 55.19802856 C62.9836676 54.80905396 62.46908997 54.42007935 61.93891907 54.01931763 C57.19682806 50.41859153 52.51665572 46.73830446 47.85810852 43.03030396 C44.95079671 40.72522713 42.01514624 38.53226896 38.95527649 36.43240356 C37.93820618 35.67443481 36.92113586 34.91646606 35.87324524 34.13552856 C35.87324524 33.47552856 35.87324524 32.81552856 35.87324524 32.13552856 C35.32152649 31.88545044 34.76980774 31.63537231 34.20137024 31.37771606 C31.44749807 29.90836816 29.10625028 28.1539933 26.62324524 26.26052856 C25.55960315 25.45302611 24.4957918 24.64574657 23.43183899 23.83865356 C22.57694885 23.18799927 22.57694885 23.18799927 21.70478821 22.52420044 C19.75779758 21.0479964 17.80298013 19.58270455 15.84590149 18.11990356 C15.15593079 17.60411743 14.46596008 17.0883313 13.75508118 16.55691528 C12.41870461 15.55825917 11.08213015 14.55986778 9.74531555 13.5617981 C4.73781323 9.81191683 -0.18607054 5.97828296 -5.12675476 2.13552856 C-5.12675476 21.93552856 -5.12675476 41.73552856 -5.12675476 62.13552856 C-5.45675476 62.13552856 -5.78675476 62.13552856 -6.12675476 62.13552856 C-6.1498824 54.1993907 -6.16767199 46.26326681 -6.17856693 38.32710361 C-6.18379484 34.64238358 -6.19089081 30.95768654 -6.20219421 27.27297974 C-6.21302638 23.71982025 -6.21903229 20.16668294 -6.221632 16.61350822 C-6.22348566 15.2550719 -6.22710514 13.89663685 -6.23248482 12.53820992 C-6.23969951 10.64170633 -6.24016285 8.74518063 -6.24028015 6.84866333 C-6.24250076 5.76722549 -6.24472137 4.68578766 -6.24700928 3.57157898 C-6.02827178 -0.859486 -3.91209429 0.01659739 0 0 Z " fill="#FDD98A" transform="translate(322.1267547607422,157.86447143554688)"/>
<path d="M0 0 C4.62119209 3.29931621 7.8191867 6.81355855 9.6796875 12.19921875 C10.56106577 19.8199162 9.98626856 25.79150298 5.6796875 32.19921875 C5.0815625 33.12734375 4.4834375 34.05546875 3.8671875 35.01171875 C-0.91291382 39.79182007 -5.33546877 40.40270519 -11.8828125 40.57421875 C-18.20404777 40.37938616 -21.81111237 39.67096813 -26.4140625 35.13671875 C-32.49667224 28.62575621 -33.64090022 24.77687168 -33.53515625 15.953125 C-33.02794502 9.45159925 -30.14246381 5.53915493 -25.3203125 1.19921875 C-24.8046875 0.62171875 -24.2890625 0.04421875 -23.7578125 -0.55078125 C-17.94201385 -5.60799747 -6.05682418 -3.5813172 0 0 Z " fill="#FDB51B" transform="translate(368.3203125,258.80078125)"/>
<path d="M0 0 C0 20.13 0 40.26 0 61 C-0.33 60.34 -0.66 59.68 -1 59 C-2.32848963 58.32373265 -3.66301136 57.65930539 -5 57 C-6.81578771 55.72107831 -8.60464366 54.40360556 -10.375 53.0625 C-10.88957764 52.67352539 -11.40415527 52.28455078 -11.93432617 51.88378906 C-16.67641718 48.28306297 -21.35658952 44.6027759 -26.01513672 40.89477539 C-28.90096429 38.60673245 -31.81187347 36.43444786 -34.85546875 34.359375 C-38 32 -38 32 -39 29 C-31.36685241 22.53589303 -23.61663669 16.28338852 -15.64208984 10.24658203 C-13.94981743 8.96190422 -12.26563822 7.66710083 -10.58203125 6.37109375 C-9.49244871 5.53872047 -8.40261451 4.70667647 -7.3125 3.875 C-6.33925781 3.12992188 -5.36601562 2.38484375 -4.36328125 1.6171875 C-2 0 -2 0 0 0 Z " fill="#FCB31A" transform="translate(396,160)"/>
<path d="M0 0 C1.32 0.66 2.64 1.32 4 2 C4 4.97 4 7.94 4 11 C2.35 11 0.7 11 -1 11 C-1.33 8.69 -1.66 6.38 -2 4 C-3.45792884 3.94600264 -4.91642712 3.90720823 -6.375 3.875 C-7.59316406 3.84019531 -7.59316406 3.84019531 -8.8359375 3.8046875 C-11.21342243 3.78629949 -11.21342243 3.78629949 -13 6 C-13.16677282 9.58343976 -13.16677282 9.58343976 -13 13 C-12.443125 13.23074219 -11.88625 13.46148437 -11.3125 13.69921875 C4.45777351 20.43887956 4.45777351 20.43887956 7 26 C7.59283045 30.01807304 7.87800724 32.4521728 5.86328125 36.00390625 C2.74506852 39.92417895 0.04873221 42.14266812 -5 43 C-11.79681262 43.55610285 -16.9497673 43.22679077 -23 40 C-23 36.7 -23 33.4 -23 30 C-21.02 30 -19.04 30 -17 30 C-16.34 32.64 -15.68 35.28 -15 38 C-13.37509046 38.02698189 -11.75005367 38.04638757 -10.125 38.0625 C-9.22007813 38.07410156 -8.31515625 38.08570313 -7.3828125 38.09765625 C-4.9831415 38.16249257 -4.9831415 38.16249257 -3 37 C-2.59270772 34.67843403 -2.25561323 32.3431213 -2 30 C-2.74890503 29.62246582 -2.74890503 29.62246582 -3.51293945 29.23730469 C-5.78471662 28.08491185 -8.04853947 26.91766921 -10.3125 25.75 C-11.09818359 25.35425781 -11.88386719 24.95851563 -12.69335938 24.55078125 C-20.06801837 20.72223488 -20.06801837 20.72223488 -22 17 C-23.2009009 13.17687879 -23.38548944 9.99773737 -21.9375 6.25 C-15.65929393 -1.04081995 -9.36599648 -0.97045265 0 0 Z " fill="#E15D62" transform="translate(98,256)"/>
<path d="M0 0 C0.33 0.99 0.66 1.98 1 3 C1.556875 2.5153125 2.11375 2.030625 2.6875 1.53125 C6.53461422 -1.01616347 10.54900658 -0.8146577 15 0 C17.82968327 2.62263327 19.90634849 5.22243388 20.11352539 9.15478516 C20.10828857 10.02409668 20.10305176 10.8934082 20.09765625 11.7890625 C20.09443359 12.73007812 20.09121094 13.67109375 20.08789062 14.640625 C20.07532227 16.11789062 20.07532227 16.11789062 20.0625 17.625 C20.05798828 18.61757813 20.05347656 19.61015625 20.04882812 20.6328125 C20.03702145 23.0886016 20.020554 25.54427104 20 28 C20.99 28 21.98 28 23 28 C23 28.99 23 29.98 23 31 C17.72 31 12.44 31 7 31 C7 30.01 7 29.02 7 28 C8.32 28 9.64 28 11 28 C10.505 16.615 10.505 16.615 10 5 C5.08410401 5.76544851 5.08410401 5.76544851 1 8 C0.84344973 9.48638992 0.74933057 10.97949127 0.68359375 12.47265625 C0.64169922 13.37177734 0.59980469 14.27089844 0.55664062 15.19726562 C0.49766602 16.61555664 0.49766602 16.61555664 0.4375 18.0625 C0.39431641 19.01189453 0.35113281 19.96128906 0.30664062 20.93945312 C0.20020724 23.29281353 0.09818992 25.64628354 0 28 C1.32 28 2.64 28 4 28 C4 28.99 4 29.98 4 31 C-1.61 31 -7.22 31 -13 31 C-13 30.01 -13 29.02 -13 28 C-11.68 28 -10.36 28 -9 28 C-9 20.74 -9 13.48 -9 6 C-10.32 6 -11.64 6 -13 6 C-13 5.01 -13 4.02 -13 3 C-4.57142857 -0.42857143 -4.57142857 -0.42857143 0 0 Z " fill="#E15C61" transform="translate(393,267)"/>
<path d="M0 0 C12.87 0 25.74 0 39 0 C39 3.96 39 7.92 39 12 C37.35 12 35.7 12 34 12 C33.505 8.04 33.505 8.04 33 4 C30.03 4 27.06 4 24 4 C24 15.22 24 26.44 24 38 C25.98 38.33 27.96 38.66 30 39 C30 39.99 30 40.98 30 42 C23.07 42 16.14 42 9 42 C9 41.01 9 40.02 9 39 C11.97 38.505 11.97 38.505 15 38 C15 26.78 15 15.56 15 4 C12.03 4 9.06 4 6 4 C6.020625 5.134375 6.04125 6.26875 6.0625 7.4375 C6 11 6 11 5 12 C3.35 12 1.7 12 0 12 C0 8.04 0 4.08 0 0 Z " fill="#E15E63" transform="translate(108,256)"/>
<path d="M0 0 C1.13308594 -0.03738281 2.26617187 -0.07476562 3.43359375 -0.11328125 C6.5625 0.3125 6.5625 0.3125 8.91015625 2.08203125 C11.47124829 5.53920278 11.68870114 8.63473124 11.66015625 12.859375 C11.65693359 13.70371094 11.65371094 14.54804688 11.65039062 15.41796875 C11.64201172 16.29066406 11.63363281 17.16335938 11.625 18.0625 C11.62048828 18.95066406 11.61597656 19.83882813 11.61132812 20.75390625 C11.599574 22.94017329 11.58314249 25.12630179 11.5625 27.3125 C13.2125 26.9825 14.8625 26.6525 16.5625 26.3125 C16.1875 28.25 16.1875 28.25 15.5625 30.3125 C12.43543041 31.8760348 8.98267557 31.71208487 5.5625 31.3125 C4.5725 30.6525 3.5825 29.9925 2.5625 29.3125 C1.881875 29.8075 1.20125 30.3025 0.5 30.8125 C-3.16181906 32.68236505 -5.36964595 32.82098176 -9.4375 32.3125 C-12.375 30.75 -12.375 30.75 -14.4375 28.3125 C-15.0625 24.875 -15.0625 24.875 -14.4375 21.3125 C-10.95269028 16.47873168 -5.9788457 14.16999229 -0.4375 12.3125 C0.5525 12.3125 1.5425 12.3125 2.5625 12.3125 C2.2325 10.0025 1.9025 7.6925 1.5625 5.3125 C-0.7475 4.6525 -3.0575 3.9925 -5.4375 3.3125 C-5.375625 4.735625 -5.375625 4.735625 -5.3125 6.1875 C-5.4375 9.3125 -5.4375 9.3125 -7.4375 11.3125 C-10.0625 10.9375 -10.0625 10.9375 -12.4375 10.3125 C-13.1875 8.625 -13.1875 8.625 -13.4375 6.3125 C-9.72127954 0.60544716 -6.54750789 0.14120619 0 0 Z " fill="#E15C60" transform="translate(277.4375,266.6875)"/>
<path d="M0 0 C6.6 0 13.2 0 20 0 C20 1.32 20 2.64 20 4 C18.35 4 16.7 4 15 4 C15.433125 4.91523438 15.86625 5.83046875 16.3125 6.7734375 C16.869375 7.96195312 17.42625 9.15046875 18 10.375 C18.556875 11.55835938 19.11375 12.74171875 19.6875 13.9609375 C21 17 21 17 21 19 C21.66 19 22.32 19 23 19 C23.226875 18.195625 23.45375 17.39125 23.6875 16.5625 C25.33631588 12.08714261 27.60544412 8.11278682 30 4 C28.35 4 26.7 4 25 4 C25 2.68 25 1.36 25 0 C29.29 0 33.58 0 38 0 C38 1.32 38 2.64 38 4 C37.08190552 4.14683228 37.08190552 4.14683228 36.14526367 4.29663086 C32.38401853 5.529833 31.06844769 9.24410247 29.3125 12.5625 C28.91039307 13.31523193 28.50828613 14.06796387 28.09399414 14.84350586 C24.30187101 22.47784727 23.71706393 29.59114013 24 38 C25.98 38.33 27.96 38.66 30 39 C30 39.99 30 40.98 30 42 C23.07 42 16.14 42 9 42 C9 41.01 9 40.02 9 39 C11.475 38.505 11.475 38.505 14 38 C15.37146854 26.36791501 12.87911786 19.33332119 6.96875 9.38671875 C5 6 5 6 5 4 C3.35 4 1.7 4 0 4 C0 2.68 0 1.36 0 0 Z " fill="#E15C61" transform="translate(189,256)"/>
<path d="M0 0 C1.32 0 2.64 0 4 0 C4.43344727 1.145896 4.86689453 2.29179199 5.31347656 3.47241211 C6.92284596 7.71455939 8.55271735 11.94857518 10.18896484 16.18041992 C10.89480102 18.01452206 11.59502729 19.85079323 12.28955078 21.68920898 C13.28779168 24.32863767 14.305827 26.95965515 15.328125 29.58984375 C15.63558655 30.41588608 15.9430481 31.24192841 16.25982666 32.09300232 C16.70984039 33.23407188 16.70984039 33.23407188 17.16894531 34.39819336 C17.42653625 35.07103867 17.6841272 35.74388397 17.94952393 36.43711853 C18.91094601 38.20738955 18.91094601 38.20738955 21.11444092 38.72511292 C21.73667542 38.81582565 22.35890991 38.90653839 23 39 C23 40.32 23 41.64 23 43 C16.73 43 10.46 43 4 43 C4 41.68 4 40.36 4 39 C5.65 39 7.3 39 9 39 C7.5250853 35.18584126 6.04436147 31.37396462 4.5625 27.5625 C4.14162109 26.47388672 3.72074219 25.38527344 3.28710938 24.26367188 C2.88427734 23.22919922 2.48144531 22.19472656 2.06640625 21.12890625 C1.69459229 20.17056885 1.32277832 19.21223145 0.93969727 18.22485352 C0.19292184 16.06749989 0.19292184 16.06749989 -1 15 C-3.64 22.92 -6.28 30.84 -9 39 C-7.35 39 -5.7 39 -4 39 C-4 40.32 -4 41.64 -4 43 C-8.62 43 -13.24 43 -18 43 C-18 41.68 -18 40.36 -18 39 C-16.35 39 -14.7 39 -13 39 C-12.89115479 38.17097168 -12.78230957 37.34194336 -12.67016602 36.48779297 C-11.91520195 32.55867942 -10.66893803 28.93148295 -9.27734375 25.1953125 C-9.01240616 24.4713327 -8.74746857 23.74735291 -8.47450256 23.00143433 C-7.63375226 20.70744793 -6.78575273 18.4162214 -5.9375 16.125 C-5.36344998 14.56267713 -4.78987726 13.0001788 -4.21679688 11.4375 C-2.81671209 7.62294772 -1.41012313 3.81085222 0 0 Z " fill="#E16065" transform="translate(166,255)"/>
<path d="M0 0 C2.8100346 1.79363911 4.50940468 3.01880935 6 6 C7.16036013 15.15068812 5.2928682 21.51313257 0 29 C-1.58502968 30.8840146 -3.12135 32.39762206 -5 34 C-11.20859473 25.69919389 -15.72408572 18.90448451 -15.4296875 8.2734375 C-14.75359196 4.69627745 -12.84862746 3.10255836 -10 1 C-6.79826746 -0.60086627 -3.47422941 -0.49917089 0 0 Z " fill="#FEFBFB" transform="translate(203,194)"/>
<path d="M0 0 C1.53333984 0.00580078 1.53333984 0.00580078 3.09765625 0.01171875 C5.93936054 0.31269706 7.5745543 0.7389571 9.9375 2.3125 C12.08559171 5.53463757 12.23136153 6.59025401 11.9375 10.3125 C10.9375 11.3125 10.9375 11.3125 8.375 11.375 C7.570625 11.354375 6.76625 11.33375 5.9375 11.3125 C4.17287317 8.22440305 3.9375 7.07937864 3.9375 3.3125 C-0.78901507 4.10664667 -0.78901507 4.10664667 -4.265625 7.01953125 C-6.22629932 12.66127548 -6.07103012 19.21475734 -3.5 24.5625 C-0.19241717 26.93717485 1.95066304 26.74742767 5.9375 26.3125 C6.9275 25.9825 7.9175 25.6525 8.9375 25.3125 C9.2675 24.3225 9.5975 23.3325 9.9375 22.3125 C10.5975 22.6425 11.2575 22.9725 11.9375 23.3125 C10.99776802 26.69553514 10.0101148 28.24696957 7.375 30.625 C2.44439108 33.04548074 -1.78946221 33.33933538 -7.0546875 31.6875 C-11.32889017 29.63294764 -13.55087147 26.84926207 -15.3984375 22.51953125 C-16.81792691 17.80181644 -17.06060116 13.66049206 -15.109375 9.0703125 C-11.427955 2.70937794 -7.54710101 -0.12403579 0 0 Z " fill="#E15E63" transform="translate(246.0625,266.6875)"/>
<path d="M0 0 C2.31 0 4.62 0 7 0 C7 2.64 7 5.28 7 8 C9.31 8 11.62 8 14 8 C14 9.65 14 11.3 14 13 C11.69 13 9.38 13 7 13 C7.33 19.6 7.66 26.2 8 33 C9.98 33 11.96 33 14 33 C14 34.32 14 35.64 14 37 C11.50959058 39.49040942 10.56845643 39.32391014 7.125 39.375 C6.26132812 39.40335937 5.39765625 39.43171875 4.5078125 39.4609375 C2 39 2 39 -0.3046875 37.6796875 C-3.06632468 33.31451905 -2.41634408 28.79150512 -2.25 23.75 C-2.23195313 22.71875 -2.21390625 21.6875 -2.1953125 20.625 C-2.14822712 18.08238936 -2.0824805 15.54166838 -2 13 C-3.32 13 -4.64 13 -6 13 C-6 11.68 -6 10.36 -6 9 C-4.35 9 -2.7 9 -1 9 C-0.67 6.03 -0.34 3.06 0 0 Z " fill="#E15E63" transform="translate(301,259)"/>
<path d="M0 0 C0.99 0.66 1.98 1.32 3 2 C2.60752821 8.27954856 0.54828045 11.81405164 -3 17 C0.3 17 3.6 17 7 17 C7.23976563 16.28199219 7.47953125 15.56398438 7.7265625 14.82421875 C9.18865536 11.58160176 10.9834015 9.43849105 13.375 6.8125 C14.14585937 5.95269531 14.91671875 5.09289062 15.7109375 4.20703125 C17.77685184 2.21515138 19.3704081 1.07465057 22 0 C20.700625 1.485 20.700625 1.485 19.375 3 C17.06544328 5.70548073 14.80902433 8.44196872 12.625 11.25 C12.12226563 11.89453125 11.61953125 12.5390625 11.1015625 13.203125 C9.73867551 15.07499854 9.73867551 15.07499854 10 18 C9 19 8 20 7 21 C6.28552357 23.10332891 6.28552357 23.10332891 6 25 C6.66 25.33 7.32 25.66 8 26 C6.68 26 5.36 26 4 26 C4.33 23.69 4.66 21.38 5 19 C-1.22497389 18.80340931 -1.22497389 18.80340931 -6.5546875 21.40234375 C-7.77834208 23.21866453 -7.77834208 23.21866453 -9 26 C-9.33 25.34 -9.66 24.68 -10 24 C-9.0625 21.875 -9.0625 21.875 -8 20 C-9.65 20.33 -11.3 20.66 -13 21 C-13 20.34 -13 19.68 -13 19 C-13.804375 18.690625 -14.60875 18.38125 -15.4375 18.0625 C-18 17 -18 17 -19 16 C-19.50775051 12.95349692 -19.5043894 10.8520578 -17.90625 8.15234375 C-13.18602172 2.2395046 -7.8187664 -0.88849618 0 0 Z " fill="#FDC958" transform="translate(332,319)"/>
<path d="M0 0 C0 9.24 0 18.48 0 28 C1.32 28 2.64 28 4 28 C4 28.99 4 29.98 4 31 C-1.61 31 -7.22 31 -13 31 C-13 30.01 -13 29.02 -13 28 C-11.68 28 -10.36 28 -9 28 C-9 20.74 -9 13.48 -9 6 C-10.32 6 -11.64 6 -13 6 C-13 5.01 -13 4.02 -13 3 C-8.06632653 0.99308198 -5.44479395 0 0 0 Z " fill="#E15C61" transform="translate(332,267)"/>
<path d="M0 0 C0 0.66 0 1.32 0 2 C0.66 2 1.32 2 2 2 C2.05449838 3.72880982 2.09301688 5.45812712 2.125 7.1875 C2.14820313 8.15042969 2.17140625 9.11335938 2.1953125 10.10546875 C1.98923916 13.15947562 1.35222547 15.26667593 0 18 C-3.35872614 20.61234256 -6.89112621 20.43251303 -11 20 C-13.9375 18.4375 -13.9375 18.4375 -16 16 C-16.625 12.5625 -16.625 12.5625 -16 9 C-12.62213507 4.31457446 -6.0125354 0 0 0 Z " fill="#E15F64" transform="translate(279,279)"/>
<path d="M0 0 C-0.36731508 5.87704123 -1.94292522 10.58329532 -6 15 C-8.8125 15.5 -8.8125 15.5 -11 15 C-11 14.34 -11 13.68 -11 13 C-11.66 13.66 -12.32 14.32 -13 15 C-15.625 14.625 -15.625 14.625 -18 14 C-18 10.11862199 -17.86423829 8.00662996 -15.29296875 5.01171875 C-10.12055525 0.37669886 -6.9698276 -1.7424569 0 0 Z " fill="#FEFDF9" transform="translate(333,321)"/>
<path d="M0 0 C2.3847821 3.57717315 3.30696 7.14337574 4.375 11.25 C4.59051514 12.07757813 4.80603027 12.90515625 5.02807617 13.7578125 C6.71641916 20.45898687 8.0928354 27.19883832 9.3125 34 C9.56942627 35.39460449 9.56942627 35.39460449 9.83154297 36.81738281 C10.93253022 43.25833007 11.19176554 49.4720799 11 56 C9.46833008 53.21880989 8.68031277 50.90682305 8.2890625 47.76171875 C8.18078125 46.94872314 8.0725 46.13572754 7.9609375 45.2980957 C7.85007812 44.43659912 7.73921875 43.57510254 7.625 42.6875 C5.957125 30.70290598 2.88393197 19.45759931 -1 8 C-1 7.34 -1 6.68 -1 6 C-0.34 6 0.32 6 1 6 C0.67 4.02 0.34 2.04 0 0 Z " fill="#EB6B70" transform="translate(436,198)"/>
<path d="M0 0 C-1.98 0.99 -1.98 0.99 -4 2 C-3.34 2.66 -2.68 3.32 -2 4 C-19.96853478 8.1902184 -37.61667863 11.29475978 -56 13 C-56.33 11.68 -56.66 10.36 -57 9 C-56.20722656 9.05800781 -55.41445312 9.11601562 -54.59765625 9.17578125 C-37.61690237 9.83249549 -20.43204656 5.78275485 -4.59765625 -0.1796875 C-2 -1 -2 -1 0 0 Z " fill="#ED7C80" transform="translate(309,467)"/>
<path d="M0 0 C0.33 0.66 0.66 1.32 1 2 C2.65 1.34 4.3 0.68 6 0 C5.67 1.32 5.34 2.64 5 4 C5.66 4.33 6.32 4.66 7 5 C5.38405168 7.04119788 3.7143618 9.04072937 2 11 C1.34 11 0.68 11 0 11 C0 10.01 0 9.02 0 8 C-0.845625 8.515625 -1.69125 9.03125 -2.5625 9.5625 C-6.58736786 11.24562656 -8.80214298 10.92352855 -13 10 C-12.06409496 8.8944811 -11.12620142 7.79064547 -10.1875 6.6875 C-9.66542969 6.07261719 -9.14335937 5.45773437 -8.60546875 4.82421875 C-8.07566406 4.22222656 -7.54585938 3.62023437 -7 3 C-6.52175781 2.42894531 -6.04351562 1.85789062 -5.55078125 1.26953125 C-4 0 -4 0 0 0 Z " fill="#FEF4DC" transform="translate(285,332)"/>
<path d="M0 0 C0.33 0.66 0.66 1.32 1 2 C2.65 1.34 4.3 0.68 6 0 C5.67 1.32 5.34 2.64 5 4 C5.66 4.33 6.32 4.66 7 5 C5.38405168 7.04119788 3.7143618 9.04072937 2 11 C1.34 11 0.68 11 0 11 C0 10.01 0 9.02 0 8 C-0.845625 8.515625 -1.69125 9.03125 -2.5625 9.5625 C-6.58736786 11.24562656 -8.80214298 10.92352855 -13 10 C-12.06409496 8.8944811 -11.12620142 7.79064547 -10.1875 6.6875 C-9.66542969 6.07261719 -9.14335937 5.45773437 -8.60546875 4.82421875 C-8.07566406 4.22222656 -7.54585937 3.62023437 -7 3 C-6.52175781 2.42894531 -6.04351562 1.85789062 -5.55078125 1.26953125 C-4 0 -4 0 0 0 Z " fill="#FEF4DC" transform="translate(157,332)"/>
<path d="M0 0 C0.33 0 0.66 0 1 0 C1.06469482 0.55647217 1.12938965 1.11294434 1.19604492 1.6862793 C3.15799509 18.15824033 6.34959851 34.07719675 11 50 C10.34 50 9.68 50 9 50 C8.67 50.99 8.34 51.98 8 53 C2.87690047 35.99566964 -1.13014414 17.83116316 0 0 Z " fill="#ED797D" transform="translate(53,283)"/>
<path d="M0 0 C1 3 1 3 0.00390625 5.26171875 C-0.47175781 6.06222656 -0.94742188 6.86273438 -1.4375 7.6875 C-1.91058594 8.49574219 -2.38367188 9.30398438 -2.87109375 10.13671875 C-3.42990234 11.05904297 -3.42990234 11.05904297 -4 12 C-3.01 12.33 -2.02 12.66 -1 13 C-1.928125 13.12375 -1.928125 13.12375 -2.875 13.25 C-5.10649794 13.81469049 -5.10649794 13.81469049 -6.25 15.6875 C-7.1758912 18.54233119 -7.135557 21.01774607 -7 24 C-7.99 23.67 -8.98 23.34 -10 23 C-9.54177532 19.53058454 -9.10868317 16.32604951 -8 13 C-13.00918744 14.47329042 -15.51807722 17.27515238 -19 21 C-19.66 20.67 -20.32 20.34 -21 20 C-19.35 18.35 -17.7 16.7 -16 15 C-16.33 14.01 -16.66 13.02 -17 12 C-16.05125 11.87625 -15.1025 11.7525 -14.125 11.625 C-8.06954076 9.98368456 -4.09102839 4.46144344 0 0 Z " fill="#FDC854" transform="translate(131,321)"/>
<path d="M0 0 C0.66 0.33 1.32 0.66 2 1 C1.21625 1.45375 0.4325 1.9075 -0.375 2.375 C-3.03698031 3.88428742 -3.03698031 3.88428742 -5 6 C-7.09801767 6.00638342 -9.19641588 6.00420395 -11.29394531 5.95849609 C-16.38422416 6.03656786 -21.36260962 6.98012841 -26.375 7.8125 C-27.43460938 7.97814453 -28.49421875 8.14378906 -29.5859375 8.31445312 C-36.53515945 9.44285007 -43.24855783 11.00682106 -50 13 C-50 12.34 -50 11.68 -50 11 C-50.66 10.67 -51.32 10.34 -52 10 C-39.26002254 7.05450577 -26.72111151 4.27933979 -13.625 3.5625 C-8.33887963 3.25051294 -4.69568493 2.34784246 0 0 Z " fill="#ED797D" transform="translate(252,59)"/>
<path d="M0 0 C4.29 0 8.58 0 13 0 C13 1.32 13 2.64 13 4 C12.4121875 4.0309375 11.824375 4.061875 11.21875 4.09375 C7.73444672 5.51691613 7.08573387 8.18437463 5.5 11.5 C2.48630137 17.80136986 2.48630137 17.80136986 -0.21875 18.90625 C-0.8065625 18.9371875 -1.394375 18.968125 -2 19 C-0.45454854 13.52067211 2.15543212 8.88570819 5 4 C3.35 4 1.7 4 0 4 C0 2.68 0 1.36 0 0 Z " fill="#E3676C" transform="translate(214,256)"/>
<path d="M0 0 C1.32 0.33 2.64 0.66 4 1 C2.35 2.65 0.7 4.3 -1 6 C2.465 5.505 2.465 5.505 6 5 C5.67 5.99 5.34 6.98 5 8 C5.99 8 6.98 8 8 8 C7.566875 8.8353125 7.566875 8.8353125 7.125 9.6875 C5.9586747 12.08494645 4.9660119 14.51596939 4 17 C5.32 17.33 6.64 17.66 8 18 C6.35 18 4.7 18 3 18 C3 15.36 3 12.72 3 10 C2.01 10.495 2.01 10.495 1 11 C1 10.34 1 9.68 1 9 C-0.92189044 9.15546972 -0.92189044 9.15546972 -3 10 C-4.56473341 12.06702585 -4.56473341 12.06702585 -5.75 14.5625 C-6.17796875 15.38878906 -6.6059375 16.21507812 -7.046875 17.06640625 C-7.36140625 17.70449219 -7.6759375 18.34257812 -8 19 C-8.33 18.34 -8.66 17.68 -9 17 C-8.06421005 14.64018187 -7.06652192 12.30368736 -6 10 C-6.66 9.67 -7.32 9.34 -8 9 C-8 8.34 -8 7.68 -8 7 C-7.4225 6.95875 -6.845 6.9175 -6.25 6.875 C-2.86687535 5.55934042 -1.80777315 3.03447636 0 0 Z " fill="#FDC242" transform="translate(264,325)"/>
<path d="M0 0 C0 3.63 0 7.26 0 11 C-3.375 11.625 -3.375 11.625 -7 12 C-7.66 11.34 -8.32 10.68 -9 10 C-8.9375 6.5625 -8.9375 6.5625 -8 3 C-5.12075508 0.65114231 -3.72527067 0 0 0 Z " fill="#FDF5F5" transform="translate(280,282)"/>
<path d="M0 0 C2.5625 0.3125 2.5625 0.3125 4.4375 1.5 C5.5625 3.3125 5.5625 3.3125 5.375 5.875 C4.5625 8.3125 4.5625 8.3125 2.5625 10.3125 C-0.30762296 10.68046448 -1.84524618 10.68759409 -4.3125 9.125 C-5.4375 7.3125 -5.4375 7.3125 -5.25 4.75 C-4.18108204 1.54324612 -3.41484064 0.43780008 0 0 Z " fill="#E16165" transform="translate(327.4375,250.6875)"/>
<path d="M0 0 C0 0.66 0 1.32 0 2 C0.66 2.66 1.32 3.32 2 4 C0.16310053 4.69316961 -1.67462832 5.38419294 -3.515625 6.06640625 C-5.2621417 6.72272306 -7.00120489 7.39905167 -8.734375 8.08984375 C-14.07063457 10.16096107 -18.26792307 11.50951795 -24 11 C-7.5 0 -7.5 0 0 0 Z " fill="#E9595F" transform="translate(326,459)"/>
<path d="M0 0 C0.66 0 1.32 0 2 0 C2.9605272 2.37413326 3.91847353 4.74925519 4.875 7.125 C5.14441406 7.79015625 5.41382812 8.4553125 5.69140625 9.140625 C7.26512927 13.0557408 8.709954 16.97956537 10 21 C9.01 20.67 8.02 20.34 7 20 C6.67 20.99 6.34 21.98 6 23 C4.99064871 20.1071271 3.99231256 17.21121485 3 14.3125 C2.71382813 13.49587891 2.42765625 12.67925781 2.1328125 11.83789062 C-0.42266949 4.32355667 -0.42266949 4.32355667 0 0 Z " fill="#E8565B" transform="translate(62,333)"/>
<path d="M0 0 C0.66 0 1.32 0 2 0 C0.50163895 3.11198065 -1.19933758 6.0534615 -3 9 C-2.01 8.34 -1.02 7.68 0 7 C2.1875 7.375 2.1875 7.375 4 8 C3.505 8.7425 3.01 9.485 2.5 10.25 C0.68076525 13.06318188 0.68076525 13.06318188 1 17 C0.01 16.67 -0.98 16.34 -2 16 C-2 14.35 -2 12.7 -2 11 C-3.1446875 12.2065625 -3.1446875 12.2065625 -4.3125 13.4375 C-7 16 -7 16 -10 17 C-8.57394582 13.07297642 -6.70550338 9.75380481 -4.4375 6.25 C-3.81746094 5.28578125 -3.19742188 4.3215625 -2.55859375 3.328125 C-1 1 -1 1 0 0 Z " fill="#FDC141" transform="translate(143,326)"/>
<path d="M0 0 C0 0.99 0 1.98 0 3 C0.99 2.34 1.98 1.68 3 1 C3.99 1 4.98 1 6 1 C5.566875 1.8353125 5.566875 1.8353125 5.125 2.6875 C3.9586747 5.08494645 2.9660119 7.51596939 2 10 C1.01 9.34 0.02 8.68 -1 8 C-1.99 8.33 -2.98 8.66 -4 9 C-4 9.66 -4 10.32 -4 11 C-4.66 11 -5.32 11 -6 11 C-5.34 8.69 -4.68 6.38 -4 4 C-4.66 3.67 -5.32 3.34 -6 3 C-2.25 0 -2.25 0 0 0 Z " fill="#FEEDC8" transform="translate(298,332)"/>
<path d="M0 0 C0 0.66 0 1.32 0 2 C-8.91 4.97 -8.91 4.97 -18 8 C-18 7.34 -18 6.68 -18 6 C-18.7425 6.350625 -19.485 6.70125 -20.25 7.0625 C-23.21122875 8.0720098 -24.12062561 7.87980884 -27 7 C-24.81353696 6.2054739 -22.62577779 5.4145142 -20.4375 4.625 C-19.21933594 4.18414062 -18.00117188 3.74328125 -16.74609375 3.2890625 C-11.03045595 1.32226326 -6.08502898 -0.29683068 0 0 Z " fill="#E95A5F" transform="translate(202,70)"/>
<path d="M0 0 C0.8125 2.125 0.8125 2.125 1 5 C-0.44423481 7.30107561 -2.10872135 9.01646386 -4 11 C-4.5534764 8.92446352 -5 7.15634036 -5 5 C-7.31 6.98 -9.62 8.96 -12 11 C-11.25 4.375 -11.25 4.375 -9 1 C-8.34 1 -7.68 1 -7 1 C-7 1.99 -7 2.98 -7 4 C-5.824375 3.01 -5.824375 3.01 -4.625 2 C-2 0 -2 0 0 0 Z " fill="#FDC855" transform="translate(366,332)"/>
<path d="M0 0 C0.66 0.33 1.32 0.66 2 1 C1.20335937 1.76183594 1.20335937 1.76183594 0.390625 2.5390625 C-3.61719975 6.44449757 -7.26306941 10.09633269 -10 15 C-10 15.99 -10 16.98 -10 18 C-11 19 -12 20 -13 21 C-13.71447643 23.10332891 -13.71447643 23.10332891 -14 25 C-13.34 25.33 -12.68 25.66 -12 26 C-13.32 26 -14.64 26 -16 26 C-16 16.17870573 -9.64558865 9.51233836 -3 2.8125 C-2.00776973 1.86678052 -1.01096517 0.92566499 0 0 Z " fill="#FDC242" transform="translate(352,319)"/>
<path d="M0 0 C0.99 0.33 1.98 0.66 3 1 C1.3603125 2.051875 1.3603125 2.051875 -0.3125 3.125 C-3.82574365 5.65681121 -5.57748259 7.81612525 -7 12 C-7.25144312 15.75073204 -7.25144312 15.75073204 -7 19 C-4.69 19 -2.38 19 0 19 C-2 21 -2 21 -5 21.25 C-8 21 -8 21 -10 19 C-10.72396673 13.75124118 -10.40405441 10.99644808 -7.25 6.6875 C-5.1047432 4.01676363 -2.94014291 1.78839401 0 0 Z " fill="#FDC54C" transform="translate(105,326)"/>
<path d="M0 0 C-2.4575645 1.27793354 -4.82241922 2.29906153 -7.4375 3.25 C-11.77995129 5.38313397 -13.35252343 6.98867186 -16 11 C-16.42130907 13.75401951 -16.42130907 13.75401951 -16 16 C-14.68 16.66 -13.36 17.32 -12 18 C-14.375 18.125 -14.375 18.125 -17 18 C-19 16 -19 16 -19.5 13.3125 C-18.78741331 8.5916132 -16.55029214 6.08992459 -13 3 C-8.84947668 0.36297847 -4.89641158 -0.35827402 0 0 Z " fill="#FDC243" transform="translate(332,319)"/>
<path d="M0 0 C0.99 0.33 1.98 0.66 3 1 C2.67 1.66 2.34 2.32 2 3 C-0.0625 3.625 -0.0625 3.625 -2 4 C-2 4.99 -2 5.98 -2 7 C-2.99 7 -3.98 7 -5 7 C-5.33 8.32 -5.66 9.64 -6 11 C-6.66 10.67 -7.32 10.34 -8 10 C-10.09821215 10.39938767 -10.09821215 10.39938767 -12 11 C-13.15837626 6.94568308 -12.83691257 4.78187881 -11 1 C-10.01 1 -9.02 1 -8 1 C-9.33333333 3.66666667 -10.66666667 6.33333333 -12 9 C-6.96108318 7.56030948 -5.13397703 4.98099785 -2 1 C-1.34 0.67 -0.68 0.34 0 0 Z " fill="#FDCB5E" transform="translate(184,332)"/>
<path d="M0 0 C0.66 0.33 1.32 0.66 2 1 C-4.93 7.93 -11.86 14.86 -19 22 C-19.66 21.67 -20.32 21.34 -21 21 C-16.18409819 15.45948333 -11.34386708 10.21211233 -5.73046875 5.47265625 C-3.70895696 3.75231777 -1.83779134 1.91436598 0 0 Z " fill="#E95C61" transform="translate(117,112)"/>
<path d="M0 0 C0.721875 0.103125 1.44375 0.20625 2.1875 0.3125 C3.2201802 3.10073655 3.23259293 4.1802274 2.25 7.0625 C1.899375 7.805 1.54875 8.5475 1.1875 9.3125 C1.8475 9.6425 2.5075 9.9725 3.1875 10.3125 C1.8675 10.6425 0.5475 10.9725 -0.8125 11.3125 C-1.4725 9.9925 -2.1325 8.6725 -2.8125 7.3125 C-1.4925 5.3325 -0.1725 3.3525 1.1875 1.3125 C-2.99132671 3.87678003 -5.93755529 6.33180733 -8.8125 10.3125 C-8.5109013 6.79384855 -7.80644038 5.30492548 -5.5625 2.5 C-2.8125 0.3125 -2.8125 0.3125 0 0 Z " fill="#FDBC31" transform="translate(230.8125,331.6875)"/>
<path d="M0 0 C0.721875 0.103125 1.44375 0.20625 2.1875 0.3125 C3.2201802 3.10073655 3.23259293 4.1802274 2.25 7.0625 C1.899375 7.805 1.54875 8.5475 1.1875 9.3125 C1.8475 9.6425 2.5075 9.9725 3.1875 10.3125 C1.8675 10.6425 0.5475 10.9725 -0.8125 11.3125 C-1.4725 9.9925 -2.1325 8.6725 -2.8125 7.3125 C-1.4925 5.3325 -0.1725 3.3525 1.1875 1.3125 C-2.99132671 3.87678003 -5.93755529 6.33180733 -8.8125 10.3125 C-8.5109013 6.79384855 -7.80644038 5.30492548 -5.5625 2.5 C-2.8125 0.3125 -2.8125 0.3125 0 0 Z " fill="#FDBD31" transform="translate(201.8125,331.6875)"/>
<path d="M0 0 C0.33 0.99 0.66 1.98 1 3 C-0.32 4.32 -1.64 5.64 -3 7 C-2.67 5.68 -2.34 4.36 -2 3 C-4.99324263 4.0975223 -5.84610901 4.67682892 -7.25 7.625 C-7.4975 8.40875 -7.745 9.1925 -8 10 C-7.34 10.33 -6.68 10.66 -6 11 C-8.31 10.67 -10.62 10.34 -13 10 C-12.06409496 8.8944811 -11.12620142 7.79064547 -10.1875 6.6875 C-9.66542969 6.07261719 -9.14335937 5.45773437 -8.60546875 4.82421875 C-8.07566406 4.22222656 -7.54585938 3.62023437 -7 3 C-6.52175781 2.42894531 -6.04351562 1.85789062 -5.55078125 1.26953125 C-4 0 -4 0 0 0 Z " fill="#FDC64D" transform="translate(285,332)"/>
<path d="M0 0 C0.33 0.99 0.66 1.98 1 3 C-0.32 4.32 -1.64 5.64 -3 7 C-2.67 5.68 -2.34 4.36 -2 3 C-4.99324263 4.0975223 -5.84610901 4.67682892 -7.25 7.625 C-7.4975 8.40875 -7.745 9.1925 -8 10 C-7.34 10.33 -6.68 10.66 -6 11 C-8.31 10.67 -10.62 10.34 -13 10 C-12.06409496 8.8944811 -11.12620142 7.79064547 -10.1875 6.6875 C-9.66542969 6.07261719 -9.14335937 5.45773437 -8.60546875 4.82421875 C-8.07566406 4.22222656 -7.54585937 3.62023437 -7 3 C-6.52175781 2.42894531 -6.04351562 1.85789062 -5.55078125 1.26953125 C-4 0 -4 0 0 0 Z " fill="#FDC64E" transform="translate(157,332)"/>
<path d="M0 0 C0.66 0 1.32 0 2 0 C0.64447629 3.61256797 -0.96608825 6.87171587 -2.9375 10.1875 C-3.44152344 11.04730469 -3.94554687 11.90710938 -4.46484375 12.79296875 C-6 15 -6 15 -9 17 C-11.1875 16.625 -11.1875 16.625 -13 16 C-12.01 15.67 -11.02 15.34 -10 15 C-7.24663125 12.58037292 -5.44463953 10.37082558 -4 7 C-4.66 6.67 -5.32 6.34 -6 6 C-4.625 4.5 -4.625 4.5 -3 3 C-2.34 3 -1.68 3 -1 3 C-0.67 2.01 -0.34 1.02 0 0 Z " fill="#FDCB5D" transform="translate(247,333)"/>
<path d="M0 0 C0.66 0.33 1.32 0.66 2 1 C1.6875 2.875 1.6875 2.875 1 5 C-2 7 -2 7 -6 7 C-5.67 8.32 -5.34 9.64 -5 11 C-6.32 10.34 -7.64 9.68 -9 9 C-6.49876949 4.83128248 -4.50584021 2.01577062 0 0 Z " fill="#FDD376" transform="translate(381,332)"/>
<path d="M0 0 C0.66 0.33 1.32 0.66 2 1 C1.67 1.66 1.34 2.32 1 3 C1.99 3 2.98 3 4 3 C3.566875 3.8353125 3.566875 3.8353125 3.125 4.6875 C1.9586747 7.08494645 0.9660119 9.51596939 0 12 C1.32 12.33 2.64 12.66 4 13 C2.35 13 0.7 13 -1 13 C-1 10.36 -1 7.72 -1 5 C-1.99 5.495 -1.99 5.495 -3 6 C-3 5.34 -3 4.68 -3 4 C-4.32 3.67 -5.64 3.34 -7 3 C-4.69631264 1.93347808 -2.35981813 0.93578995 0 0 Z " fill="#FDCF6C" transform="translate(268,330)"/>
<path d="M0 0 C-0.65061095 1.67299959 -1.32033324 3.33859237 -2 5 C-2.268125 5.7425 -2.53625 6.485 -2.8125 7.25 C-4 9 -4 9 -6.625 9.75 C-7.40875 9.8325 -8.1925 9.915 -9 10 C-8.84759391 7.33289346 -8.50635081 5.5494129 -6.66796875 3.5546875 C-2.49375 0 -2.49375 0 0 0 Z " fill="#FEF3DA" transform="translate(232,333)"/>
<path d="M0 0 C-0.65061095 1.67299959 -1.32033324 3.33859237 -2 5 C-2.268125 5.7425 -2.53625 6.485 -2.8125 7.25 C-4 9 -4 9 -6.625 9.75 C-7.40875 9.8325 -8.1925 9.915 -9 10 C-8.84759391 7.33289346 -8.50635081 5.5494129 -6.66796875 3.5546875 C-2.49375 0 -2.49375 0 0 0 Z " fill="#FEF3DA" transform="translate(203,333)"/>
<path d="M0 0 C0.556875 0.268125 1.11375 0.53625 1.6875 0.8125 C1.6875 3.8125 1.6875 3.8125 0.1875 5.5 C-0.3075 5.933125 -0.8025 6.36625 -1.3125 6.8125 C-0.9825 5.4925 -0.6525 4.1725 -0.3125 2.8125 C-3.30574263 3.9100223 -4.15860901 4.48932892 -5.5625 7.4375 C-5.81 8.22125 -6.0575 9.005 -6.3125 9.8125 C-5.6525 10.1425 -4.9925 10.4725 -4.3125 10.8125 C-5.6325 10.4825 -6.9525 10.1525 -8.3125 9.8125 C-8.00654824 6.24306285 -7.28825359 4.78235581 -5 1.9375 C-2.3125 -0.1875 -2.3125 -0.1875 0 0 Z " fill="#FDC242" transform="translate(352.3125,332.1875)"/>
<path d="M0 0 C0.33 0 0.66 0 1 0 C2.51537186 7.7527507 3.27990605 15.10042938 3 23 C0.67311003 19.23966727 0.31193592 15.23884345 -0.1875 10.9375 C-0.28224609 10.21755859 -0.37699219 9.49761719 -0.47460938 8.75585938 C-0.87779876 5.4410886 -1.06899831 3.20699494 0 0 Z " fill="#EF8C8F" transform="translate(444,231)"/>
<path d="M0 0 C0.33 0.66 0.66 1.32 1 2 C0.67 2.66 0.34 3.32 0 4 C0.66 4.33 1.32 4.66 2 5 C0.38405168 7.04119788 -1.2856382 9.04072937 -3 11 C-3.66 11 -4.32 11 -5 11 C-5.68359375 9.234375 -5.68359375 9.234375 -6 7 C-4.78515625 5.078125 -4.78515625 5.078125 -3.0625 3.25 C-2.49660156 2.63640625 -1.93070312 2.0228125 -1.34765625 1.390625 C-0.90292969 0.93171875 -0.45820313 0.4728125 0 0 Z " fill="#FDC854" transform="translate(290,332)"/>
<path d="M0 0 C0.33 0.66 0.66 1.32 1 2 C0.67 2.66 0.34 3.32 0 4 C0.66 4.33 1.32 4.66 2 5 C0.38405168 7.04119788 -1.2856382 9.04072937 -3 11 C-3.66 11 -4.32 11 -5 11 C-5.68359375 9.234375 -5.68359375 9.234375 -6 7 C-4.78515625 5.078125 -4.78515625 5.078125 -3.0625 3.25 C-2.49660156 2.63640625 -1.93070313 2.0228125 -1.34765625 1.390625 C-0.90292969 0.93171875 -0.45820313 0.4728125 0 0 Z " fill="#FDC854" transform="translate(162,332)"/>
<path d="M0 0 C0.93423645 3.01031744 1.04449911 3.86650268 0 7 C1.32 7.66 2.64 8.32 4 9 C1.25 14.875 1.25 14.875 -1 16 C-0.34 14.02 0.32 12.04 1 10 C-0.65 10.33 -2.3 10.66 -4 11 C-2.7874262 7.27566618 -1.49140021 3.62197194 0 0 Z " fill="#FDD57E" transform="translate(323,329)"/>
<path d="M0 0 C1.96301592 3.50538557 2.95902388 7.13351728 4 11 C3.34 11 2.68 11 2 11 C1.67 11.99 1.34 12.98 1 14 C0.01 10.04 -0.98 6.08 -2 2 C-1.34 2 -0.68 2 0 2 C0 1.34 0 0.68 0 0 Z " fill="#EB6C70" transform="translate(60,322)"/>
<path d="M0 0 C1.1196437 3.35893109 1.07992835 4.67714354 0 8 C-2.0625 9.8125 -2.0625 9.8125 -4 11 C-4.66 10.01 -5.32 9.02 -6 8 C-4.02 5.36 -2.04 2.72 0 0 Z " fill="#FDC752" transform="translate(211,332)"/>
<path d="M0 0 C-2.28502851 3.42754276 -3.13834634 3.88441117 -7 5 C-9.3320802 5.07646165 -11.66845878 5.09143299 -14 5 C-11.68570179 3.45713453 -9.45428972 2.10007245 -7 0.8125 C-6.319375 0.44769531 -5.63875 0.08289063 -4.9375 -0.29296875 C-3 -1 -3 -1 0 0 Z " fill="#E85156" transform="translate(316,465)"/>
<path d="M0 0 C0.556875 0.226875 1.11375 0.45375 1.6875 0.6875 C1.1925 1.43 0.6975 2.1725 0.1875 2.9375 C-1.63173475 5.75068188 -1.63173475 5.75068188 -1.3125 9.6875 C-2.3025 9.3575 -3.2925 9.0275 -4.3125 8.6875 C-4.3125 7.0375 -4.3125 5.3875 -4.3125 3.6875 C-5.3025 3.3575 -6.2925 3.0275 -7.3125 2.6875 C-2.88173077 -0.38942308 -2.88173077 -0.38942308 0 0 Z " fill="#FDC855" transform="translate(145.3125,333.3125)"/>
<path d="M0 0 C-0.66 2.64 -1.32 5.28 -2 8 C-0.35 7.34 1.3 6.68 3 6 C2.67 6.99 2.34 7.98 2 9 C0.35 9.33 -1.3 9.66 -3 10 C-3.66 7.69 -4.32 5.38 -5 3 C-2.25 0 -2.25 0 0 0 Z " fill="#FDC957" transform="translate(217,333)"/>
<path d="M0 0 C-1.04097612 3.86648272 -2.03698408 7.49461443 -4 11 C-4.66 11 -5.32 11 -6 11 C-5.34 8.69 -4.68 6.38 -4 4 C-4.66 3.67 -5.32 3.34 -6 3 C-2.25 0 -2.25 0 0 0 Z " fill="#FDC448" transform="translate(298,332)"/>
<path d="M0 0 C-1.04097612 3.86648272 -2.03698408 7.49461443 -4 11 C-4.66 11 -5.32 11 -6 11 C-5.34 8.69 -4.68 6.38 -4 4 C-4.66 3.67 -5.32 3.34 -6 3 C-2.25 0 -2.25 0 0 0 Z " fill="#FDC448" transform="translate(170,332)"/>
<path d="M0 0 C0.66 0 1.32 0 2 0 C0.62845496 2.95409701 -0.98863724 5.44008376 -3 8 C-1.68 7.67 -0.36 7.34 1 7 C0.01 7.99 -0.98 8.98 -2 10 C-3.32 9.34 -4.64 8.68 -6 8 C-2.25 2.25 -2.25 2.25 0 0 Z " fill="#FDC751" transform="translate(240,333)"/>
<path d="M0 0 C0.99 0 1.98 0 3 0 C2.34 2.31 1.68 4.62 1 7 C-0.32 7 -1.64 7 -3 7 C-2.25 2.25 -2.25 2.25 0 0 Z " fill="#FEF2D7" transform="translate(349,335)"/>
<path d="M0 0 C1.32 0.33 2.64 0.66 4 1 C2.68 3.31 1.36 5.62 0 8 C0.99 8.33 1.98 8.66 3 9 C1.68 9.33 0.36 9.66 -1 10 C-2.46726798 6.18510326 -1.43336419 3.70988378 0 0 Z " fill="#FDC958" transform="translate(369,333)"/>
<path d="M0 0 C-2.48517704 1.29229206 -4.97670251 2.41124316 -7.5625 3.5 C-11.03066797 4.89360094 -11.03066797 4.89360094 -14 7 C-14 6.01 -14 5.02 -14 4 C-9.22642128 1.28608722 -5.65611463 -0.56561146 0 0 Z " fill="#FDCB5F" transform="translate(332,319)"/>
<path d="M0 0 C1 3 1 3 0.00390625 5.04296875 C-0.47175781 5.75066406 -0.94742188 6.45835937 -1.4375 7.1875 C-1.91058594 7.90292969 -2.38367188 8.61835938 -2.87109375 9.35546875 C-3.24363281 9.89816406 -3.61617188 10.44085938 -4 11 C-4.66 10.67 -5.32 10.34 -6 10 C-4.6302836 6.00499382 -2.74277578 3.19990508 0 0 Z " fill="#FDBA2A" transform="translate(131,321)"/>
<path d="M0 0 C-2.34171739 2.34171739 -3.23060454 2.391923 -6.4375 2.75 C-7.21996094 2.84796875 -8.00242188 2.9459375 -8.80859375 3.046875 C-11 3 -11 3 -14 1 C-9.23692563 0.04738513 -4.8333472 -0.08333357 0 0 Z " fill="#EC7175" transform="translate(226,65)"/>
<path d="M0 0 C0.99 0.33 1.98 0.66 3 1 C2.34 2.65 1.68 4.3 1 6 C1.66 6.33 2.32 6.66 3 7 C1.68 7.33 0.36 7.66 -1 8 C-1.66 6.68 -2.32 5.36 -3 4 C-2.01 2.68 -1.02 1.36 0 0 Z " fill="#FDC54D" transform="translate(231,335)"/>
<path d="M0 0 C0.99 0.33 1.98 0.66 3 1 C2.34 2.65 1.68 4.3 1 6 C1.66 6.33 2.32 6.66 3 7 C1.68 7.33 0.36 7.66 -1 8 C-1.66 6.68 -2.32 5.36 -3 4 C-2.01 2.68 -1.02 1.36 0 0 Z " fill="#FDC54C" transform="translate(202,335)"/>
<path d="M0 0 C-1.07401108 2.91517292 -1.77810176 4.77810176 -4 7 C-4.99 7 -5.98 7 -7 7 C-3.86206897 0 -3.86206897 0 0 0 Z " fill="#FEDF9C" transform="translate(128,326)"/>
<path d="M0 0 C0.66 0 1.32 0 2 0 C3.17571451 3.67410785 3.07366746 7.16929183 3 11 C2.34 10.67 1.68 10.34 1 10 C0.5859375 7.71484375 0.5859375 7.71484375 0.375 4.9375 C0.30023438 4.01839844 0.22546875 3.09929687 0.1484375 2.15234375 C0.09945313 1.44207031 0.05046875 0.73179687 0 0 Z " fill="#E85358" transform="translate(439,213)"/>
<path d="M0 0 C0.66 0 1.32 0 2 0 C1.71125 0.556875 1.4225 1.11375 1.125 1.6875 C-0.0413253 4.08494645 -1.0339881 6.51596939 -2 9 C-0.02 9.495 -0.02 9.495 2 10 C0.35 10 -1.3 10 -3 10 C-3.2295711 6.63295715 -3.33943529 4.58629732 -1.625 1.625 C-1.08875 1.08875 -0.5525 0.5525 0 0 Z " fill="#FDBF3A" transform="translate(270,333)"/>
<path d="M0 0 C0.66 0.66 1.32 1.32 2 2 C1.34 3.65 0.68 5.3 0 7 C-0.99 7 -1.98 7 -3 7 C-3 4 -3 4 -2 1 C-1.34 0.67 -0.68 0.34 0 0 Z " fill="#FEEDC8" transform="translate(171,334)"/>
<path d="M0 0 C0.66 0 1.32 0 2 0 C0.8905928 3.48670834 -0.26337666 6.77484237 -2 10 C-3.39195915 5.82412255 -1.82323219 3.86525224 0 0 Z " fill="#FDBB2C" transform="translate(357,333)"/>
<path d="M0 0 C0.99 0 1.98 0 3 0 C2.71125 0.556875 2.4225 1.11375 2.125 1.6875 C0.9586747 4.08494645 -0.0339881 6.51596939 -1 9 C-2.0326802 6.21176345 -2.04509293 5.1322726 -1.0625 2.25 C-0.711875 1.5075 -0.36125 0.765 0 0 Z " fill="#FDBD33" transform="translate(301,333)"/>
<path d="M0 0 C0.99 0 1.98 0 3 0 C2.71125 0.556875 2.4225 1.11375 2.125 1.6875 C0.9586747 4.08494645 -0.0339881 6.51596939 -1 9 C-2.0326802 6.21176345 -2.04509293 5.1322726 -1.0625 2.25 C-0.711875 1.5075 -0.36125 0.765 0 0 Z " fill="#FDBD33" transform="translate(173,333)"/>
</svg>
